# xmcd
#
# Track frame offsets:
#	150
#	23728
#	67800
#	97947
#	143022
#	190030
#	248647
#	279177
#
# Disc length: 4342 seconds
#
# Revision: 1
# Processed by: cddbd v1.4PL0 Copyright (c) Steve Scherf et al.
# Submitted via: EasyCDDAExtractor 6.0.0.1
#
DISCID=5910f408
DTITLE=Heinrich Unterhofer - Mama Mantra
DYEAR=1900
DGENRE=
TTITLE0=Ecco partiti
TTITLE1=Passacaglia
TTITLE2=Karma
TTITLE3=Train
TTITLE4=Mantra
TTITLE5=To Take Off
TTITLE6=Church
TTITLE7=Karuna
EXTD=
EXTT0=
EXTT1=
EXTT2=
EXTT3=
EXTT4=
EXTT5=
EXTT6=
EXTT7=
PLAYORDER=
